<?xml version="1.0" encoding="UTF-8" standalone="no"?>
<!DOCTYPE svg PUBLIC "-//W3C//DTD SVG 1.1//EN" "http://www.w3.org/Graphics/SVG/1.1/DTD/svg11.dtd">
<svg width="100%" height="100%" viewBox="0 0 800 600" version="1.1" xmlns="http://www.w3.org/2000/svg" xmlns:xlink="http://www.w3.org/1999/xlink" xml:space="preserve" xmlns:serif="http://www.serif.com/" style="fill-rule:evenodd;clip-rule:evenodd;stroke-linejoin:round;stroke-miterlimit:2;">
    <g transform="matrix(2.62407,0,0,2.62407,-27.5068,531.197)">
        <path d="M137.358,-0.018L137.358,-187.182L116.946,-187.182L116.946,-48.968L42.03,-187.182L21.042,-187.182L21.042,-0.018L41.454,-0.018L41.454,-141.686L116.946,-0.018L137.358,-0.018Z" style="fill:white;fill-rule:nonzero;"/>
        <path d="M293.166,-114.318L305.838,-134.19C290.286,-140.238 285.102,-140.526 279.918,-140.526C269.262,-140.526 247.662,-138.798 238.16,-120.654C238.16,-123.822 240.174,-134.19 241.902,-136.782L191.538,-136.782L191.538,-121.518L219.474,-120.078L219.474,-16.686L177.138,-16.686L177.138,-0.018L281.358,-0.018C279.918,-4.903 279.918,-10.651 279.918,-15.824L279.918,-16.686L239.31,-16.686L239.31,-95.31C243.918,-115.758 269.838,-126.99 293.166,-114.318Z" style="fill:white;fill-rule:nonzero;"/>
    </g>
</svg>
